<svg aria-hidden="true" style="position:absolute;width:0;height:0" xmlns="http://www.w3.org/2000/svg" overflow="hidden"><defs><symbol id="icon-heck" viewBox="0 0 32 32"><path fill="var(--color1, #2196f3)" d="M4 1h24a4 4 0 014 4v22a4 4 0 01-4 4H4a4 4 0 01-4-4V5a4 4 0 014-4z"/><path fill="var(--color2, #fff)" stroke="var(--color2, #fff)" stroke-width=".4" d="M7.914 16.504l-.138-.132-.138.13L5.71 18.33l.152.146 7.13 6.8.138-.132 15.16-14.462-.152-.144-1.902-1.814-.138.132-13.106 12.492-5.078-4.844z"/></symbol><symbol id="modal-mail-1" viewBox="0 0 32 32"><path d="M28 4H4a2.997 2.997 0 00-2.986 3L1 25c0 1.65 1.35 3 3 3h24c1.65 0 3-1.35 3-3V7c0-1.65-1.35-3-3-3zm-.6 6.376l-10.604 6.628c-.226.141-.501.225-.795.225s-.569-.084-.801-.229l.006.004L4.6 10.374a1.275 1.275 0 111.354-2.157l-.005-.003 10.05 6.286 10.05-6.286a1.274 1.274 0 111.356 2.157l-.006.003z"/></symbol><symbol id="modal-mail-2" viewBox="0 0 32 32"><path d="M26.667 5.333H5.334A2.662 2.662 0 002.682 8l-.014 16c0 1.467 1.2 2.667 2.667 2.667h21.333c1.467 0 2.667-1.2 2.667-2.667V8c0-1.467-1.2-2.667-2.667-2.667zm-.534 5.668l-9.426 5.892a1.343 1.343 0 01-1.421-.004l.006.003L5.866 11A1.133 1.133 0 117.07 9.083l-.004-.003 8.933 5.586 8.933-5.588a1.132 1.132 0 111.204 1.916l-.005.003z"/></symbol><symbol id="modal-person-1" viewBox="0 0 32 32"><path d="M16 16a8 8 0 000-16 8 8 0 000 16zm0 4c-5.339 0-16 2.68-16 8v2c0 1.099.901 2 2 2h28c1.099 0 2-.901 2-2v-2c0-5.32-10.661-8-16-8z"/></symbol><symbol id="modal-person-2" viewBox="0 0 32 32"><path fill="var(--color1, #2196f3)" d="M16 16a5.333 5.333 0 100-10.666A5.333 5.333 0 1016 16zm0 2.667c-3.561 0-10.667 1.787-10.667 5.333v1.333c0 .732.599 1.333 1.333 1.333h18.667c.732 0 1.333-.601 1.333-1.333V24c0-3.547-7.108-5.333-10.667-5.333z"/></symbol><symbol id="modal-tel-1" viewBox="0 0 32 32"><path d="M27.419 20.853l-4.201-.48a3.28 3.28 0 00-2.713.941l-3.045 3.045c-4.718-2.435-8.467-6.185-10.835-10.764l-.065-.139L9.623 10.4a3.281 3.281 0 00.94-2.729l.002.016-.48-4.169A3.314 3.314 0 006.798.592H3.933C2.063.59.509 2.144.623 4.014 1.501 18.14 12.799 29.42 26.909 30.297c1.867.114 3.424-1.44 3.424-3.31v-2.878a3.279 3.279 0 00-2.897-3.256l-.015-.001z"/></symbol><symbol id="modal-tel-2" viewBox="0 0 32 32"><path d="M24.882 19.774l-3.268-.373a2.555 2.555 0 00-2.11.732l-2.368 2.368c-3.669-1.894-6.585-4.81-8.427-8.372l-.051-.108 2.382-2.377a2.552 2.552 0 00.731-2.122l.001.012-.373-3.243a2.578 2.578 0 00-2.557-2.276H6.613c-1.454 0-2.663 1.209-2.574 2.663.683 10.987 9.47 19.76 20.444 20.443 1.452.089 2.663-1.12 2.663-2.574v-2.238a2.549 2.549 0 00-2.253-2.532l-.012-.001z"/></symbol><symbol id="plane" viewBox="0 0 32 32"><path fill="var(--color2, #fff)" d="M32 0L0 18l10.227 3.787L26 7 14.003 23.187l.009.003-.012-.003V32l5.735-6.691L27.002 28l4.999-28z"/></symbol><symbol id="icon-check-zero" viewBox="0 0 34 32"><path d="M30.34 3.556v24.887H3.793V3.556H30.34zm0-3.556H3.793C1.707 0 0 1.6 0 3.556v24.887c0 1.956 1.707 3.556 3.793 3.556H30.34c2.086 0 3.793-1.6 3.793-3.556V3.556C34.133 1.6 32.426 0 30.34 0z"/></symbol></defs></svg>