<svg aria-hidden="true" style="position:absolute;width:0;height:0" xmlns="http://www.w3.org/2000/svg" overflow="hidden"><defs><symbol id="client11" viewBox="0 0 20 32"><path  d="M4.085 0l4.771 4.517-8.857-.005v21.915h23.149v-8.379l4.766 4.512V.001H4.084zm18.854 17.517L9.411 4.71h13.528v12.807zm-4.2 5.703H3.663V8.482h1.066v13.74H18.74v.997zM7.224 29.345l-.557 1.147-.557-1.147h-.467l.813 1.529v.891h.422v-.891l.811-1.529h-.465zm.7 2.42l.196-.564h.938l.197.564h.439l-.916-2.42H8.4l-.914 2.42h.437zm.664-1.906l.351 1.004h-.701l.351-1.004zm2.218.945a.544.544 0 00-.091.303v.004c0 .204.072.37.214.497s.336.19.575.19a1 1 0 00.618-.195l.136.161h.468l-.355-.421c.14-.191.209-.435.209-.733h-.351a.973.973 0 01-.101.444l-.468-.552.165-.12a.922.922 0 00.249-.249l.002-.003a.53.53 0 00.076-.275v-.004-.009a.495.495 0 00-.169-.374h-.001a.61.61 0 00-.408-.157h-.025.001c-.195 0-.35.056-.465.166s-.173.259-.173.449c0 .078.018.157.054.241.038.083.104.184.197.302-.179.129-.3.24-.36.334zm1.092.536a.613.613 0 01-.382.136h-.02a.395.395 0 01-.27-.106.36.36 0 01-.108-.259v-.014.001c0-.129.067-.245.2-.346l.052-.037.528.624zm-.434-1.073c-.114-.141-.172-.257-.172-.351 0-.081.024-.148.07-.201a.239.239 0 01.178-.081h.01-.001.009c.067 0 .127.026.173.068a.214.214 0 01.072.161v.009a.3.3 0 01-.103.226l-.052.041-.184.127zm3.94 1.315c.166-.145.261-.347.286-.605h-.419c-.022.173-.075.296-.158.37s-.208.112-.372.112c-.18 0-.318-.069-.412-.206s-.14-.337-.14-.599v-.214c.003-.259.052-.453.15-.587a.494.494 0 01.422-.201c.157 0 .276.039.357.116s.133.202.153.376h.419c-.027-.265-.121-.47-.285-.615s-.378-.218-.645-.218a.978.978 0 00-.525.142.925.925 0 00-.345.396l-.002.006a1.396 1.396 0 00-.122.576v.03-.001.226c.003.223.045.418.125.587s.193.298.339.39a.955.955 0 00.511.136c.276 0 .497-.072.663-.216zm2.471-.339c.082-.18.123-.388.123-.625v-.134-.024c0-.216-.047-.421-.131-.605l.004.009a.932.932 0 00-.35-.406l-.004-.002c-.152-.095-.326-.143-.524-.143s-.372.048-.525.144a.939.939 0 00-.354.414c-.079.175-.125.38-.125.595v.032-.002.136c.001.232.043.436.126.613a.95.95 0 00.356.411.98.98 0 00.525.143.971.971 0 00.526-.143.941.941 0 00.352-.413zm-.45-1.369c.102.143.152.349.152.618v.126c0 .272-.05.48-.151.622a.49.49 0 01-.429.213h-.017a.503.503 0 01-.413-.216l-.001-.002c-.104-.145-.155-.351-.155-.617v-.14c.002-.26.054-.462.156-.603a.498.498 0 01.409-.215h.018-.001c.187 0 .33.072.431.214z"/></symbol><symbol id="client22" viewBox="0 0 20 32"><path d="M10.531 1.806h-.084a9.985 9.985 0 00-.388-.014h-.28c-.244 0-.494.006-.741.018l-.028-.001-.03.001h.001a17.367 17.367 0 00-6.575 1.696l.104-.045-.266.128v13.626l.623-.212a23.32 23.32 0 011.731-.513c1.488-.398 3.202-.638 4.967-.661h.014v1.79c-.223.001-.439.007-.655.018h-.052a20.051 20.051 0 00-3.971.619l.139-.031a19.399 19.399 0 00-4.666 1.83l.1-.051V2.529A17.896 17.896 0 015.137.608L5.264.58a17.87 17.87 0 014.511-.582h.267c.314.008.622.022.91.044.829.06 1.597.187 2.339.378l-.09-.02v1.762a13.17 13.17 0 00-2.134-.326l-.045-.003-.044-.004c-.152-.013-.304-.026-.446-.026zm3.102 1.801c.391.03.795.044 1.205.044a19.413 19.413 0 004.881-.639l-.135.03a19.492 19.492 0 004.665-1.831l-.101.051v17.163a17.979 17.979 0 01-4.665 1.921l-.127.028a17.954 17.954 0 01-4.51.581h-.115c-1.177 0-2.319-.147-3.409-.425l.095.021V3.276a13.88 13.88 0 002.164.328l.051.003zm8.734.133l-.623.209c-.572.193-1.151.365-1.731.518-1.551.415-3.332.657-5.169.663h-.004c-.406 0-.78-.011-1.142-.034l-.496-.033V19.08l.426.037c.395.035.803.052 1.214.052a16.554 16.554 0 004.189-.553l-.116.026a16.96 16.96 0 003.285-1.189l-.102.044.266-.128V3.739zM1.684 25.977a.916.916 0 00-.661-.281l-.033.001h.002-.014c-.139 0-.272.028-.393.078l.007-.003a.904.904 0 00-.51.512l-.002.006a1.002 1.002 0 00-.072.386v2.335c-.006.164.026.328.092.479a.83.83 0 00.554.479c.114.031.231.048.349.048a.985.985 0 00.968-.982v-.261h-.61v.221a.53.53 0 01-.038.199l.001-.004a.38.38 0 01-.089.132.426.426 0 01-.255.089.308.308 0 01-.286-.125l-.001-.001a.548.548 0 01-.082-.289l.001-.024v.001-2.177a.74.74 0 01.075-.349.31.31 0 01.262-.143l.038.002H.986h.012c.107 0 .201.052.26.131l.001.001a.494.494 0 01.102.301v.013-.001.202h.604v-.238-.011c0-.143-.027-.28-.077-.405l.003.007a.955.955 0 00-.205-.329zm3.626-.026a1.051 1.051 0 00-1.058-.191.965.965 0 00-.557.511l-.002.006a1.08 1.08 0 00-.089.452v2.239c-.004.158.026.314.089.458a.888.888 0 00.236.313.964.964 0 00.322.197 1.049 1.049 0 001.059-.198l-.001.001a.948.948 0 00.23-.313c.063-.144.093-.301.089-.458v-2.239-.02c0-.156-.033-.305-.092-.439l.003.007a1.016 1.016 0 00-.23-.327zm-.285 3.018l.002.035a.398.398 0 01-.123.289.446.446 0 01-.575 0l.001.001a.398.398 0 01-.121-.326v.002-2.239l-.001-.034a.4.4 0 01.123-.289.446.446 0 01.575 0l-.001-.001a.398.398 0 01.121.326v-.002 2.24zm5.047 1v-4.24h-.586l-.771 2.244h-.01l-.777-2.244h-.58v4.239h.606V27.39h.011l.593 1.823h.302l.598-1.823h.01v2.578h.606zm3.441-3.942a.834.834 0 00-.342-.232 1.31 1.31 0 00-.416-.066h-.024.001-.9v4.24h.604v-1.656h.311a1.1 1.1 0 00.545-.116.88.88 0 00.329-.32l.002-.004a1 1 0 00.138-.369c.021-.133.033-.287.033-.444v-.04.002a2.426 2.426 0 00-.059-.606.906.906 0 00-.223-.39zm-.312 1.292a.538.538 0 01-.057.224l.001-.003a.342.342 0 01-.154.147l-.002.001a.617.617 0 01-.254.054l-.033-.001h.002-.275V26.3h.311l.029-.001c.088 0 .172.02.247.055l-.004-.002a.35.35 0 01.141.154l.001.002a.62.62 0 01.053.236v.282c0 .098.006.201 0 .291h-.006zm3.173-1.59h-.495l-.934 4.24h.604l.177-.911h.823l.178.911h.604l-.958-4.24zm-.557 2.752l.297-1.537h.011l.295 1.537h-.604zm4.46-.198h-.011l-.912-2.554h-.581v4.24h.604v-2.55h.012l.923 2.549h.568v-4.239h-.604v2.554zm3.691-2.554l-.486 1.686h-.012l-.486-1.686h-.639l.83 2.448v1.791h.604v-1.791l.83-2.447h-.64zM0 31.166h.291v.817h.198v-.817h.289v-.167H0v.168zm2.447-.168l-.382.985h.21l.081-.224h.392l.084.224h.215l-.391-.985h-.21zm-.03.595l.134-.365.134.365h-.268zm2.449.027h.228v.127a.378.378 0 01-.234.083h-.014a.25.25 0 01-.195-.094.406.406 0 01-.073-.234l.001-.023v.001c0-.219.095-.329.283-.329l.021-.001c.097 0 .178.067.201.157v.001l.194-.038c-.042-.192-.18-.289-.417-.289h-.013a.492.492 0 00-.331.127.48.48 0 00-.141.38v-.002.023c0 .132.048.254.127.347l-.001-.001c.087.09.209.146.343.146L4.877 32h-.001.016c.155 0 .296-.06.402-.157v-.388h-.426v.166zm2.471-.622h-.198v.985h.689v-.167h-.49v-.817zm2.089 0h-.199v.985h.199v-.985zm2.042.657l-.403-.657h-.193v.985h.185v-.643l.396.643h.198v-.985h-.182v.658zm1.847-.106h.49v-.167h-.49v-.215h.527v-.168h-.727v.985h.747v-.167h-.548v-.266zm4.477-.163h-.388v-.388h-.197v.984h.197v-.431h.388v.431h.198v-.985h-.198v.388zm1.857.163h.492v-.167h-.492v-.215h.529v-.168h-.726v.985h.746v-.167h-.548v-.266zm2.519.001c.171-.027.258-.118.258-.274a.23.23 0 00-.096-.219h-.001a.555.555 0 00-.25-.059l-.04.001h.002-.417v.984h.198v-.412h.055c.039 0 .076.008.109.023l-.002-.001a.201.201 0 01.07.072l.215.313h.236l-.12-.192a.704.704 0 00-.215-.235l-.002-.002zm-.199-.137h-.146v-.247h.156a.515.515 0 01.205.024l-.004-.001a.13.13 0 01-.009.2.537.537 0 01-.164.025l-.039-.001h.002zm2.099.136h.49v-.167h-.49v-.215h.529v-.168h-.729v.985h.747v-.167h-.548v-.266z"/></symbol><symbol id="client33" viewBox="0 0 30 32"><path  d="M5.643 31.315c.012 0 .024.003.035.008s.021.011.03.018l.166.158c-.13.129-.289.232-.468.302a1.78 1.78 0 01-.62.109l-.045-.001h.002a1.742 1.742 0 01-.622-.101 1.365 1.365 0 01-.47-.286l.001.001a1.277 1.277 0 01-.3-.432l-.003-.008a1.438 1.438 0 01-.107-.55v-.017-.028c0-.388.168-.737.436-.977l.001-.001a1.52 1.52 0 01.498-.287 1.96 1.96 0 01.642-.101h.04c.199 0 .39.034.568.096l-.012-.004c.165.062.316.149.447.255l-.139.169a.138.138 0 01-.034.03h-.001a.098.098 0 01-.048.013h-.008a.132.132 0 01-.062-.018h.001l-.074-.046-.104-.058a1.182 1.182 0 00-.321-.1l-.007-.001a1.376 1.376 0 00-.23-.018h-.019.001-.015c-.16 0-.313.028-.455.079l.009-.003a1.07 1.07 0 00-.363.214l.001-.001a.99.99 0 00-.235.339 1.117 1.117 0 00-.085.432v.017-.001.019c0 .157.031.307.088.444l-.003-.008a.953.953 0 00.576.548c.136.049.281.073.427.072.085.001.17-.004.254-.014.211-.022.4-.106.55-.234l-.001.001a.133.133 0 01.078-.029zm4.798-.798v.017c0 .197-.041.384-.116.553l.003-.009a1.24 1.24 0 01-.311.435l-.001.001c-.138.123-.302.22-.481.283l-.01.003a2.03 2.03 0 01-1.278-.004l.014.004a1.471 1.471 0 01-.489-.288l.001.001a1.28 1.28 0 01-.313-.432l-.003-.008a1.454 1.454 0 01.004-1.134l-.004.01c.071-.165.178-.315.316-.442a1.45 1.45 0 01.488-.277 2.003 2.003 0 011.278.004l-.014-.004c.184.065.351.162.49.286a1.296 1.296 0 01.426 1zm-.436 0v-.024a1.19 1.19 0 00-.082-.436l.003.008a.935.935 0 00-.566-.548l-.007-.002a1.455 1.455 0 00-.928.003l.01-.003a.997.997 0 00-.352.214h.001a.911.911 0 00-.222.331l-.002.006a1.321 1.321 0 00.003.911l-.003-.009c.101.26.309.46.569.547l.007.002c.296.097.622.097.918 0a.962.962 0 00.35-.211.933.933 0 00.222-.338c.056-.145.082-.298.079-.451zm3.71.473l.044.101c.016-.036.03-.069.047-.101a.95.95 0 01.054-.099l1.061-1.677c.021-.029.04-.047.061-.053s.047-.009.073-.009h.015-.001.314v2.728h-.372v-2.09a.68.68 0 010-.096v.002l-1.069 1.701a.158.158 0 01-.062.061h-.001a.19.19 0 01-.09.023h-.064a.183.183 0 01-.09-.023h.001a.15.15 0 01-.061-.061v-.001l-1.099-1.711v2.189h-.359v-2.722h.328c.026 0 .051.003.075.01h-.002c.026.011.046.03.058.053l1.084 1.678a.49.49 0 01.054.098zm3.995-.135v1.021h-.414v-2.723h.926c.175-.003.35.018.517.059.134.034.259.091.366.17.089.07.159.16.205.262l.002.004c.05.111.073.23.071.349v.017a.753.753 0 01-.299.602l-.002.001a1.062 1.062 0 01-.368.18c-.14.04-.301.064-.468.064h-.035l-.501-.008zm0-.293h.503c.109.002.218-.013.322-.041a.69.69 0 00.234-.119l-.002.001a.523.523 0 00.191-.404v-.006l.001-.029a.453.453 0 00-.043-.195l.001.003a.529.529 0 00-.144-.185l-.001-.001a.888.888 0 00-.562-.146h.003-.503v1.122zm5.584 1.318h-.334a.15.15 0 01-.086-.026h.001a.169.169 0 01-.054-.062v-.001l-.282-.658H21.12l-.293.658a.152.152 0 01-.051.061.156.156 0 01-.089.027h-.332l1.246-2.728h.432l1.263 2.728zm-2.057-1.013h1.173l-.495-1.11a1.87 1.87 0 01-.093-.256l-.048.142a1.284 1.284 0 01-.049.124l.003-.008-.49 1.108zm3.852-1.701a.173.173 0 01.062.048l1.817 2.056v-2.117h.372v2.728h-.212a.204.204 0 01-.082-.017h.001a.221.221 0 01-.066-.05l-1.816-2.054.001.047-.002.049v-.002 2.027h-.372v-2.728h.22c.025 0 .051.005.075.013zm5.313 1.629v1.083h-.415v-1.082l-1.149-1.643h.381c.03 0 .057.009.08.023h-.001a.234.234 0 01.056.062l.718 1.06c.049.07.092.149.124.234l.002.007.055-.117a.894.894 0 01.07-.124l.709-1.067a.293.293 0 01.053-.058.137.137 0 01.082-.027h.384l-1.15 1.65zm-16.893-6.219c.181.02.364.036.549.05 2.804-1.09 5.174-2.872 6.818-5.126s2.485-4.878 2.421-7.546l-3.089-2.683c.628 2.84.334 5.775-.849 8.478s-3.208 5.067-5.849 6.827z"/><path  d="M12.407 24.451l.083.015c2.822-1.755 4.973-4.203 6.176-7.031s1.402-5.904.571-8.83l-4.4-3.822c1.779 3.142 2.496 6.659 2.065 10.141-.43 3.482-1.989 6.786-4.495 9.528zm14.921-9.345c-.747 2.931-2.563 5.574-5.176 7.538a16.171 16.171 0 01-2.368 1.49l-.092.043c2.129-.543 4.085-1.504 5.718-2.808s2.901-2.917 3.703-4.714l-1.784-1.549z"/><path  d="M26.628 14.674l-2.54-2.207c-.049 2.517-.872 4.976-2.385 7.122s-3.66 3.902-6.217 5.084h.012c.57 0 1.139-.03 1.705-.088 2.39-.848 4.502-2.197 6.146-3.926s2.771-3.785 3.278-5.985zM12.774 3.17L9.743.534c-2.709.91-5.039 2.509-6.686 4.588S.526 9.664.518 12.188c.01 2.789 1.09 5.495 3.07 7.69 1.979 2.194 4.744 3.754 7.858 4.43 2.78-2.942 4.408-6.578 4.646-10.379s-.924-7.57-3.319-10.758zM33.63 14.268c-.011-3.308-1.528-6.478-4.221-8.818s-6.342-3.658-10.15-3.668h-.028c-1.831 0-3.59.305-5.231.867l.114-.034L32.67 18.737c.605-1.313.958-2.849.96-4.468v-.001z"/><symbol id="client44" viewBox="0 0 65 36"><path  d="M10.016 9.983h-.002c-1.827 0-3.308 1.316-3.308 2.94v.002c0 1.624 1.481 2.94 3.308 2.94h.002c1.827 0 3.308-1.317 3.308-2.94v-.002c0-1.624-1.481-2.941-3.308-2.941zm24.418-.939c-.005-2.255-1.016-4.418-2.81-6.012S27.398.539 24.861.534c-2.539.004-4.972.902-6.767 2.497s-2.806 3.757-2.811 6.013v12.437s19.15-1.896 19.152-12.434v-.002zM0 25.562c.005 1.57.709 3.073 1.957 4.183s2.94 1.735 4.706 1.739c1.765-.005 3.457-.63 4.706-1.739s1.952-2.613 1.957-4.181V16.91S.002 18.23.002 25.562zm6.662 1.55c-.345 0-.682-.091-.969-.261a1.617 1.617 0 01-.638-.686l-.004-.009a1.394 1.394 0 01-.097-.904l-.002.009a1.5 1.5 0 01.477-.794 1.81 1.81 0 01.882-.423l.011-.002a1.939 1.939 0 011.021.092l-.013-.004c.319.117.592.316.783.571s.294.555.294.861c.001.204-.043.407-.131.596a1.555 1.555 0 01-.376.503l-.002.001a1.77 1.77 0 01-.567.338 1.907 1.907 0 01-.668.119h-.001v-.006zm13.466-.854h-1.286v1.328h-.67v-3.251h2.117v.542h-1.447v.84h1.286v.54zm3.218-.223c0 .32-.056.6-.169.841a1.278 1.278 0 01-1.185.755h-.027.001l-.04.001c-.516 0-.961-.303-1.168-.74l-.003-.008a1.882 1.882 0 01-.177-.804v-.028.001-.162c0-.32.058-.601.172-.843a1.285 1.285 0 011.212-.757c.27 0 .51.066.721.197.212.13.374.316.489.56.116.242.174.523.174.841v.145zm-.678-.148c0-.341-.061-.6-.183-.777a.596.596 0 00-.496-.266l-.028.001h.001l-.025-.001a.597.597 0 00-.494.262l-.001.002c-.122.174-.183.43-.185.768v.158c0 .331.061.589.183.772s.298.274.527.274l.026.001a.59.59 0 00.49-.261l.001-.002c.12-.177.181-.434.183-.773v-.158zm2.85.846l.001-.019a.34.34 0 00-.133-.27l-.001-.001c-.089-.069-.25-.14-.482-.214a3.473 3.473 0 01-.57-.232l.019.009c-.37-.2-.554-.469-.554-.806 0-.175.05-.332.147-.469a.975.975 0 01.427-.324c.186-.077.395-.116.625-.116.232 0 .439.042.621.127a.97.97 0 01.421.355.926.926 0 01.152.522h-.67a.434.434 0 00-.14-.346c-.094-.084-.226-.125-.395-.125-.164 0-.291.035-.382.105a.325.325 0 00-.136.265v.008c0 .106.053.194.158.266.107.071.264.138.471.2.381.114.658.257.833.427s.261.381.261.634c0 .281-.107.503-.32.663s-.498.239-.859.239c-.25 0-.478-.046-.683-.137a1.11 1.11 0 01-.469-.373l-.002-.003a.962.962 0 01-.16-.533v-.022.001h.671c0 .358.214.538.643.538a.634.634 0 00.373-.096.32.32 0 00.134-.259v-.013.001zm3.574-1.855h-.995v2.708h-.67v-2.708h-.981v-.542h2.647v.542zm2.339 1.3h-1.285v.871h1.509v.538h-2.178v-3.251h2.174v.542h-1.505v.775h1.286v.524zm1.819.218h-.533v1.19h-.67v-3.251h1.208c.384 0 .68.086.888.257s.312.413.312.725a.996.996 0 01-.145.556.984.984 0 01-.429.35l-.006.002.702 1.328v.03h-.718l-.61-1.189zm-.533-.542h.541c.168 0 .297-.042.39-.126a.46.46 0 00.139-.33l-.001-.026v.001c0-.154-.043-.274-.131-.362s-.219-.132-.4-.132h-.538v.975zm4.058.587v1.145h-.67v-3.251h1.269c.244 0 .458.045.642.134a.98.98 0 01.429.382c.099.164.149.35.149.56 0 .318-.11.57-.328.754-.218.183-.519.275-.904.275h-.587zm0-.542h.598c.178 0 .312-.042.404-.125a.454.454 0 00.141-.357l.001-.024a.534.534 0 00-.141-.363.527.527 0 00-.389-.152h-.614v1.021zm4.236.279h-1.285v.871h1.509v.538h-2.178v-3.251h2.174v.542h-1.505v.775h1.286v.524zm3.108-1.3h-.996v2.708h-.669v-2.708h-.983v-.542h2.648v.542zm2.339 1.3h-1.285v.871h1.509v.538h-2.179v-3.251h2.174v.542h-1.504v.775h1.285v.524zm1.819.218h-.533v1.19h-.67v-3.251h1.208c.384 0 .68.086.888.257s.312.413.312.725a.996.996 0 01-.145.556.982.982 0 01-.429.35l-.006.002.703 1.328v.03h-.718l-.61-1.189zm-.533-.542h.54c.168 0 .298-.042.391-.126a.46.46 0 00.139-.33l-.001-.026v.001a.484.484 0 00-.132-.362c-.086-.088-.219-.132-.399-.132h-.538v.975zm3.935.88l.001-.019a.34.34 0 00-.134-.271l-.001-.001c-.089-.069-.25-.14-.482-.214a3.473 3.473 0 01-.57-.232l.019.009c-.37-.2-.554-.469-.554-.806 0-.175.05-.332.147-.469a.975.975 0 01.427-.324c.186-.077.395-.116.625-.116.232 0 .439.042.621.127a.97.97 0 01.421.355.926.926 0 01.152.522h-.67a.434.434 0 00-.14-.346c-.094-.084-.226-.125-.395-.125-.164 0-.291.035-.382.105a.325.325 0 00-.136.265v.008c0 .106.053.194.158.266.107.071.264.138.471.2.381.114.658.257.833.427s.261.381.261.634a.785.785 0 01-.32.663c-.212.159-.498.239-.859.239-.25 0-.478-.046-.683-.137a1.11 1.11 0 01-.469-.373l-.002-.003a.962.962 0 01-.16-.533v-.022.001h.671c0 .358.214.538.643.538a.634.634 0 00.373-.096.32.32 0 00.134-.259v-.013.001z"/></symbol><symbol id="client55" viewBox="0 0 40 32"><path  d="M3.239 26.373a.98.98 0 01.25.665.964.964 0 01-.092.466l.003-.006a1.057 1.057 0 01-.296.378l-.002.002a1.776 1.776 0 01-1.13.306h.006H.001V23.97h1.936a1.76 1.76 0 011.08.283l-.007-.004a.981.981 0 01.289.354.893.893 0 01.086.436.92.92 0 01-.225.644c-.15.168-.358.283-.59.33.262.044.499.172.667.361zM.92 25.737h.828a.843.843 0 00.526-.14.516.516 0 00.14-.184l.001-.003a.46.46 0 00.038-.185l-.002-.042v.002l.001-.035a.475.475 0 00-.04-.192l.001.003a.51.51 0 00-.138-.187l-.001-.001a.845.845 0 00-.545-.142h.003-.815v1.106zm1.435 1.616a.527.527 0 00.151-.19l.001-.003a.472.472 0 00.044-.202l-.001-.035v.002l.001-.031a.49.49 0 00-.047-.21l.001.003a.534.534 0 00-.154-.193l-.001-.001a.898.898 0 00-.565-.152h.003H.92v1.16h.88a.94.94 0 00.556-.146zm4.842.832l-1.076-1.648h-.405v1.648h-.927V23.97h1.755a1.824 1.824 0 011.225.362l-.005-.003a1.293 1.293 0 01.42.938c0 .307-.109.589-.291.808l.002-.002a1.461 1.461 0 01-.829.427l-.008.001 1.147 1.684H7.197zm-1.482-2.222h.758c.526 0 .79-.212.79-.638l.001-.034a.58.58 0 00-.045-.225l.001.004a.628.628 0 00-.15-.218.865.865 0 00-.6-.171h.003-.767l.009 1.283zm6.547 1.373h-1.846l-.326.849h-.972l1.695-4.168h1.051l1.689 4.168h-.971l-.319-.848zm-.247-.638l-.675-1.779-.675 1.779h1.349zm6.588 1.487h-.921l-2.062-2.866v2.866h-.918v-4.216h.918l2.063 2.883v-2.883h.919v4.216zm5.249-1.009c-.191.318-.48.577-.833.744a2.883 2.883 0 01-1.219.267l-.079-.001h.004-1.637v-4.215h1.637l.077-.001c.441 0 .859.096 1.235.267l-.019-.008c.352.163.642.419.832.735.189.343.288.722.288 1.106s-.099.763-.288 1.106zm-1.052-.101c.25-.261.404-.616.406-1.006 0-.369-.144-.726-.406-1.006a1.681 1.681 0 00-1.157-.358h.005-.639v2.729h.639a1.69 1.69 0 001.156-.361l-.004.003zM12.838.522s11.873 4.104 11.621 10.043V20.61s-11.864-4.106-11.617-10.045L12.838.522zm22.199 17.737a17.218 17.218 0 017.544-2.545v-3.146c-3.12 1.102-5.767 3.098-7.544 5.691z"/><path  d="M33.69 19.207c1.835-3.384 5.017-5.995 8.891-7.297V2.849S25.672 8.695 26.029 17.153v14.302s.754-.261 1.939-.752c0-.457 0-.918.054-1.382.349-3.926 2.388-7.564 5.667-10.115z"/><path  d="M32.082 24.52a13.62 13.62 0 01.592-2.928c-2.043 2.203-3.279 4.936-3.536 7.816-.025.272-.039.543-.045.824a47.103 47.103 0 003.524-1.703l-.273.133a13.57 13.57 0 01-.263-4.142zm.672.051a13.032 13.032 0 00.224 3.834l-.015-.084c4.62-2.531 9.811-6.442 9.61-11.168v-.412c-3.301.338-6.388 1.659-8.79 3.76-.53 1.19-.896 2.57-1.026 4.019l-.004.051z"/></symbol><symbol id="client66" viewBox="0 0 69 32"><path  d="M33.724 15.223a2.084 2.084 0 01-.43-1.42v.006-2.051c0-.628.142-1.106.428-1.433.284-.327.774-.489 1.468-.488.652 0 1.116.139 1.389.417.299.355.444.789.411 1.226v.482h-1.166v-.489a2.465 2.465 0 00-.034-.477.464.464 0 00-.166-.283l-.001-.001a.672.672 0 00-.373-.112l-.052.002h.002a.712.712 0 00-.447.118l.003-.002a.546.546 0 00-.193.309l-.001.004c-.03.14-.047.302-.047.467v.042-.002 2.488c-.019.24.033.48.149.698a.55.55 0 00.23.168l.004.001a.633.633 0 00.305.039H35.2a.63.63 0 00.414-.114l-.002.001a.503.503 0 00.174-.299v-.003c.027-.165.04-.332.036-.498v-.505h1.167v.461a1.866 1.866 0 01-.406 1.293l.003-.004c-.268.304-.725.457-1.397.457s-1.179-.163-1.466-.501zm4.859.022c-.294-.32-.442-.784-.442-1.399v-2.157c0-.609.148-1.07.442-1.383s.787-.469 1.478-.467c.686 0 1.176.156 1.471.467.294.313.444.774.444 1.383v2.156c0 .609-.149 1.077-.449 1.398s-.787.481-1.466.481-1.181-.163-1.479-.479zm2.021-.518c.106-.199.154-.419.14-.638v-2.641a1.18 1.18 0 00-.14-.632l.003.006a.558.558 0 00-.234-.17l-.004-.001a.622.622 0 00-.312-.037h.003a.643.643 0 00-.313.038l.004-.002a.577.577 0 00-.239.171l-.001.001c-.107.195-.154.41-.14.626V14.1c-.014.22.033.439.14.639a.732.732 0 00.246.158.832.832 0 00.605-.002l-.006.002a.723.723 0 00.246-.158v-.013zm2.777-4.825h1.256l.944 3.979.967-3.979h1.222l.124 5.743h-.904l-.097-3.991-.932 3.991h-.725l-.966-4.006-.09 4.006h-.913l.114-5.743zm5.92 0h1.957c1.127 0 1.691.543 1.691 1.631 0 1.041-.594 1.562-1.781 1.56h-.666v2.552h-1.208l.007-5.744zm1.672 2.454a.93.93 0 00.665-.182.928.928 0 00.174-.649l.001-.063c0-.163-.022-.321-.062-.471l.003.013a.43.43 0 00-.089-.158.502.502 0 00-.149-.114l-.003-.001a1.24 1.24 0 00-.476-.094l-.066.002h.003-.469v1.717h.469zm3.719-2.454h1.297l1.331 5.743h-1.126l-.263-1.324h-1.157l-.27 1.324h-1.143l1.331-5.743zm1.108 3.753l-.452-2.411-.452 2.411h.903zm2.594-3.753h.846l1.618 3.276V9.902h1.003v5.743h-.804l-1.628-3.42v3.42h-1.036l.002-5.743zm5.815 3.552l-1.345-3.545h1.133l.821 2.278.77-2.278h1.109l-1.329 3.546v2.19h-1.159v-2.19zM35.59 18.156v.3h-.986v2.334h-.413v-2.334H33.2v-.3h2.389zm3.089 2.634h-.328a.141.141 0 01-.081-.025.137.137 0 01-.052-.06v-.001l-.285-.626h-1.367l-.284.626a.168.168 0 01-.044.071.144.144 0 01-.082.025h-.326l1.208-2.634h.42l1.223 2.624zm-2-.978h1.14l-.484-1.072a1.765 1.765 0 01-.086-.235l-.003-.014-.045.14-.044.11-.478 1.07zm4.083.719c.076.004.151.004.228 0a1.41 1.41 0 00.193-.031c.07-.015.128-.031.185-.051l-.011.003c.053-.018.107-.042.162-.065v-.592h-.488a.095.095 0 01-.061-.022.06.06 0 01-.018-.021.048.048 0 01-.006-.024V19.523h.938v1.01a1.799 1.799 0 01-.497.211l-.013.003c-.1.026-.2.043-.302.055a3.67 3.67 0 01-.345.016h-.023c-.212 0-.416-.036-.606-.102l.013.004a1.499 1.499 0 01-.486-.277l.002.002a1.276 1.276 0 01-.308-.409l-.003-.008a1.3 1.3 0 01-.111-.529v-.019-.015c0-.193.04-.377.112-.543l-.003.009a1.21 1.21 0 01.31-.416l.002-.001c.138-.119.302-.211.484-.273.206-.068.427-.101.647-.098.112 0 .225.007.336.023a1.62 1.62 0 01.529.172c.074.041.144.087.211.137l-.116.163a.101.101 0 01-.039.035h-.001a.112.112 0 01-.055.014.156.156 0 01-.075-.021h.001a1.595 1.595 0 01-.126-.066l.007.004a1.098 1.098 0 00-.154-.069l-.008-.002a1.522 1.522 0 00-.213-.057l-.009-.001a1.749 1.749 0 00-.29-.023h-.017.001-.015c-.162 0-.317.027-.462.076l.01-.003a1.034 1.034 0 00-.356.209l.001-.001a.944.944 0 00-.222.321l-.002.006a1.234 1.234 0 00.003.887l-.003-.008a.938.938 0 00.242.332c.099.09.219.161.352.208.154.046.316.063.479.052zm3.85-.041h1.319v.3h-1.722v-2.634h.412l-.009 2.334zm2.691.3h-.412v-2.634h.412v2.634zm1.537-2.621a.2.2 0 01.063.047l1.766 1.985-.002-.047.002-.049v.002-1.963h.36v2.645h-.222a.196.196 0 01-.077-.016h.001a.23.23 0 01-.065-.05l-1.764-1.984v2.048h-.346v-2.634h.215c.023 0 .047.004.068.012zm5.23-.013v.289h-1.463v.87h1.186v.279h-1.186v.9h1.463v.289h-1.889v-2.628h1.889zM10.782 1.889l18.343 4.496v15.757l-18.343-4.494V1.888zM9.605.545v17.868l20.693 5.075V5.622L9.605.546z"/><path  d="M20.696 31.781L0 26.702V8.837l20.696 5.077v17.867z"/><path  d="M9.948 1.686l18.103 4.44-7.698 6.649L2.246 8.333l7.702-6.647zM9.605.545L0 8.837l20.696 5.077 9.603-8.294L9.606.545zM21.86 30.776l8.439-7.288-8.438-2.069v9.358z"/></symbol><symbol id="group1" viewBox="0 0 30 32"><path fill="var(--color3, #212121)" d="M29.859 22.098l-8.443-8.505.937-4.616c.225.09.485.144.758.146h.033a2.16 2.16 0 10-2.029-1.42l-.005-.015-4.96.606L8.059.161a.53.53 0 00-.376-.16.536.536 0 00-.373.155L5.798 1.66a.535.535 0 000 .754l.814.825c-1.143 2.062-1.816 4.522-1.816 7.139 0 4.106 1.656 7.824 4.336 10.525l-.001-.001a.49.49 0 00.146.097 2.986 2.986 0 00-.052.546v6.188h-6.4a2.669 2.669 0 00-2.667 2.666v1.067c0 .295.239.534.534.534h24.534a.534.534 0 00.533-.534v-1.067a2.67 2.67 0 00-2.666-2.666h-6.4v-2.742a14.784 14.784 0 0010.166-1.502l-.077.039.818.823a.534.534 0 00.376.16.536.536 0 00.373-.155l1.512-1.504a.535.535 0 000-.754zM22.366 6.233a1.067 1.067 0 11.752 1.822h-.004a1.066 1.066 0 01-.747-1.822h-.002zM21.11 9.737l-.598 2.946-1.175-1.183 1.774-1.763zm-.606-.902l-1.92 1.909-1.486-1.493 3.406-.416zM23.09 28.8a1.6 1.6 0 011.6 1.6v.534H1.224V30.4a1.6 1.6 0 011.6-1.6h20.267zm-7.467-2.134v1.067h-5.334v-1.067h5.334zM10.29 25.6v-4.053c0-1.294 1.196-2.346 2.666-2.346s2.667 1.053 2.667 2.346V25.6H10.29zm6.4-1.696v-2.357c0-1.882-1.675-3.413-3.733-3.413h-.058c-1.353 0-2.54.707-3.213 1.771l-.009.016a13.817 13.817 0 01-3.812-9.55c0-2.314.567-4.496 1.569-6.414l-.036.077L26 22.743c-1.823.947-3.979 1.502-6.266 1.502-1.079 0-2.128-.124-3.136-.357l.093.018zm11.289-.684L6.922 2.039l.754-.752 7.935 7.98c.004 0 .006.007.01.01l13.115 13.191-.757.752z"/><path fill="var(--color2, #2196f3)" d="M12.961 20.267h-.007a1.6 1.6 0 00-.003 3.2h.007a1.6 1.6 0 00.002-3.2zm.373 1.978a.534.534 0 11-.378-.912.533.533 0 01.374.911h.005z"/></symbol><symbol id="group2" viewBox="0 0 32 32"><path fill="var(--color3, #212121)" d="M31.296 15.301C31.295 6.849 24.441-.002 15.988 0S.685 6.855.687 15.308c.002 6.788 4.422 12.543 10.541 14.545l.108.031a.667.667 0 00.529-.065.636.636 0 00.283-.357l3.865-12.25a1.913 1.913 0 10-.852-3.63l.011-.005-5.106-5.107a.638.638 0 00-.902.902l5.103 5.109a1.847 1.847 0 00-.191.826c0 .602.283 1.137.723 1.48l.004.003-3.682 11.673C3.843 25.782.117 17.709 2.797 10.431S13.551-.573 20.829 2.108c7.278 2.681 11.004 10.754 8.323 18.032-1.345 3.581-4.003 6.406-7.374 7.938l-.088.036-.398-1.874a.639.639 0 00-1.05-.343l.001-.001-3.837 3.426a.637.637 0 00.227 1.083l.005.001 4.899 1.563a.637.637 0 00.818-.744l.001.004-.391-1.839c5.528-2.374 9.329-7.772 9.329-14.057v-.034.002zm-15.304-.637a.638.638 0 010 1.276.638.638 0 010-1.276zm2.1 14.864l2.184-1.948.603 2.84-2.787-.892z"/><path fill="var(--color2, #2196f3)" d="M15.354 3.185V4.46a.638.638 0 001.276 0V3.185a.638.638 0 10-1.276 0zM3.876 14.664a.638.638 0 000 1.276h1.275a.638.638 0 000-1.276H3.876zm24.232 1.275a.638.638 0 000-1.276h-1.275a.638.638 0 000 1.276h1.275z"/></symbol><symbol id="group3" viewBox="0 0 32 32"><path fill="var(--color2, #2196f3)" d="M14.926 14.965h1.066v4.798h-1.066v-4.798zm4.264 2.132h1.066v2.665H19.19v-2.665zm-8.529 1.599h1.066v1.066h-1.066v-1.066zm-3.198-.533h1.066v1.599H7.463v-1.599z"/><path fill="var(--color3, #212121)" d="M1.599 28.291h25.586a1.6 1.6 0 001.599-1.599V24.56a1.6 1.6 0 00-1.599-1.599h-.533V9.667l3.028-2.868a1.608 1.608 0 10-.742-.752l-.004-.01-2.281 2.162v-1.23a1.6 1.6 0 00-1.599-1.599H3.731a1.6 1.6 0 00-1.599 1.599v15.992h-.533A1.6 1.6 0 000 24.56v2.132a1.6 1.6 0 001.599 1.599zM30.384 4.837a.533.533 0 010 1.066.533.533 0 010-1.066zM3.198 6.969c0-.294.239-.533.533-.533h21.323c.294 0 .533.239.533.533v2.239l-1.066 1.013V8.036a.534.534 0 00-.534-.534H4.798a.534.534 0 00-.534.533v13.327c0 .294.239.533.534.533h19.189a.534.534 0 00.534-.533v-9.675l1.066-1.01V22.96H3.198V6.969zm4.798 6.93h-.005a1.6 1.6 0 101.112 2.748l1.853.93a.535.535 0 00.636-.122l3.939-4.432 3.872 2.902a.534.534 0 00.686-.039l3.365-3.188v8.131H5.331V8.568h18.123v2.661l-3.771 3.572-3.904-2.927a.534.534 0 00-.718.071v.001l-3.993 4.493-1.493-.746c.011-.064.017-.128.02-.193a1.6 1.6 0 00-1.599-1.599zm.533 1.599a.533.533 0 01-1.066 0 .533.533 0 011.066 0zm3.198 8.528h5.33v.533a.533.533 0 01-.533.533h-4.265a.533.533 0 01-.533-.533v-.533zm-10.66.534c0-.294.238-.533.533-.533h9.062v.533a1.6 1.6 0 001.599 1.599h4.265a1.6 1.6 0 001.599-1.599v-.533h9.062c.294 0 .533.239.533.533v2.132a.533.533 0 01-.533.533H1.601a.533.533 0 01-.533-.533V24.56z"/></symbol><symbol id="group4" viewBox="0 0 32 32"><path fill="var(--color2, #2196f3)" d="M31.974 4.524a.535.535 0 00-.427-.362h-.003l-1.911-.278-.855-1.731c-.179-.365-.777-.365-.956 0l-.855 1.731-1.911.278a.534.534 0 00-.296.91l1.383 1.348-.326 1.903a.532.532 0 00.774.562l1.709-.899 1.709.899a.534.534 0 00.773-.565v.003l-.326-1.903 1.383-1.348a.535.535 0 00.134-.55l.001.004zm-2.463 1.327a.53.53 0 00-.153.472l.191 1.114-1-.526a.525.525 0 00-.501.001l.003-.001-1 .526.191-1.114a.53.53 0 00-.152-.472l-.811-.79 1.119-.162a.532.532 0 00.402-.292l.5-1.013.5 1.013a.532.532 0 00.402.292l1.119.162-.809.79zm-3.377 14.671h-1.067v1.067h1.067v-1.067zm0 2.134h-1.067v1.066h1.067v-1.066zm1.066-1.067h-1.067v1.067H27.2v-1.067zm-2.133 0H24v1.067h1.067v-1.067zm-2.667 4.8h-1.067v1.067H22.4v-1.067zm0 2.134h-1.067v1.067H22.4v-1.067zm1.067-1.067H22.4v1.067h1.067v-1.067zm-2.133 0h-1.067v1.067h1.067v-1.067zM16 24.256h-1.066v1.067H16v-1.067zm0 2.133h-1.066v1.067H16v-1.067zm1.067-1.067H16v1.067h1.067v-1.067zm-2.133 0h-1.067v1.067h1.067v-1.067zm-9.067-19.2H4.801v1.066h1.066V6.122zm0 2.134H4.801v1.066h1.066V8.256zm1.066-1.067H5.866v1.067h1.066V7.189zm-2.133 0H3.733v1.067H4.8V7.189z"/><path fill="var(--color3, #212121)" d="M24.715 14.16a1.774 1.774 0 00-1.179-.703l-.009-.001a1.769 1.769 0 00-1.344.355l.004-.003-1.253.96-1.898 1.417-1.358-.541c2.421-1.086 4.113-3.508 4.113-6.32 0-3.823-3.122-6.934-6.961-6.934S7.869 5.5 7.869 9.324c0 1.386.415 2.674 1.12 3.759l-2.768-.024c-.009 0-.016.005-.023.005a.511.511 0 00-.159.033l.004-.001c-.013.005-.026.007-.038.013-.006.003-.013.003-.019.006l-3.233 1.596-.001.001-1.893.91a.5.5 0 00-.065.036l.001-.001a1.782 1.782 0 00-.594 2.306l-.005-.01c.22.424.592.742 1.043.885l.013.003a1.772 1.772 0 001.388-.133l-.009.005 1.388-.738 2.264-1.169 1.357-.008-5.442 5.415-.001.001-1.339 1.333a1.643 1.643 0 00-.491 1.173v.005a1.668 1.668 0 001.667 1.664h.002a1.67 1.67 0 001.18-.485l1.314-1.309 1.741-1.3.901.897L4.07 27.28a1.643 1.643 0 00-.491 1.173v.004a1.662 1.662 0 001.666 1.664h.003a1.67 1.67 0 001.18-.485l4.488-4.472c.007-.006.016-.009.022-.016l5.166-5.658 3.471.494a.474.474 0 00.262-.032c.017-.006.032-.015.049-.023.019-.01.039-.015.058-.027l3.213-2.133c.012-.008.018-.021.029-.03.013-.01.029-.014.041-.026l1.271-1.191c.348-.326.564-.787.564-1.3 0-.4-.132-.769-.355-1.066l.003.005zM2.13 17.77a.706.706 0 01-.564.05l.005.001a.717.717 0 01-.215-1.258l.002-.001 1.314-.632.316.924.133.389-.992.527zm3.497-1.828l-1.548.8-.255-.746-.184-.537 2.027-1.001-.04 1.484zm15.1-6.62c0 .918-.219 1.785-.599 2.56l-4.181-1.899a1.865 1.865 0 00-.782-1.384l-.006-.004 1.464-4.861c2.377.757 4.104 2.975 4.104 5.588zm-11.789 0c0-3.235 2.644-5.867 5.894-5.867.253 0 .5.022.745.053l-1.432 4.753c-.019 0-.037-.006-.057-.006h-.001a1.872 1.872 0 00-1.872 1.867 1.873 1.873 0 001.872 1.867h.001c.695 0 1.295-.383 1.618-.944l3.863 1.755a5.891 5.891 0 01-4.737 2.39c-3.25 0-5.894-2.632-5.894-5.867zm5.957.8a.805.805 0 01-.805.8h-.002-.001a.804.804 0 01-.804-.8c0-.441.361-.8.806-.8s.806.359.806.8zM2.464 25.146a.606.606 0 01-.855.001.591.591 0 010-.844l.962-.959.852.848-.959.954zm3.214 3.734a.606.606 0 01-.855.001.591.591 0 010-.844l.963-.959.852.848-.96.955zm3.482-3.469l-.001.001-1.765 1.76-.852-.848 1.765-1.757a.527.527 0 00.09-.136c.007-.014.02-.026.026-.04.016-.041.019-.085.026-.128.003-.025.014-.048.014-.073 0-.035-.013-.07-.02-.105-.006-.032-.006-.064-.019-.096a.536.536 0 00-.092-.138c-.01-.012-.014-.026-.025-.038h-.001l-.001-.002-1.607-1.6c-.017-.017-.039-.024-.058-.038a.491.491 0 00-.084-.056l-.003-.001a.527.527 0 00-.09-.031l-.003-.001a.502.502 0 00-.101-.02h-.025a.603.603 0 00-.075.005h.003c-.036.005-.069.009-.104.021s-.064.027-.094.045c-.02.011-.043.015-.061.029l-1.774 1.324-.901-.897 2.399-2.386 4.36 4.289-.928.919zm6.819-7.017c-.016-.002-.03.004-.046.003l-.027-.001a.562.562 0 00-.092.008h.003a.484.484 0 00-.187.07l.002-.001a.492.492 0 00-.083.061c-.013.011-.028.016-.04.029l-4.698 5.146-4.328-4.256 2.833-2.818a.535.535 0 00-.378-.911h-.002l-2.219.013.028-1.607 3.104.027a6.928 6.928 0 004.978 2.101h.003c.438 0 .864-.046 1.28-.122.04.032.08.064.129.085l2.41.96.152.758.178.886-3.003-.427zm4.041.178l-.313-1.558 1.446-1.08.946 1.257-2.08 1.381zm3.753-2.831l-.837.785-.931-1.236.831-.637a.735.735 0 01.543-.143.718.718 0 01.621.71.71.71 0 01-.226.521z"/><path fill="var(--color3, #212121)" d="M13.602 18.544l-2.143-2.134a.53.53 0 00-.752 0l-2.143 2.133a.535.535 0 000 .756l2.142 2.134a.53.53 0 00.752 0l2.143-2.134a.532.532 0 000-.756zm-2.519 1.759l-1.387-1.381 1.386-1.381 1.387 1.381-1.387 1.381zm6.081-15.232l-.258 1.036c.071.018 1.738.452 1.738 2.149h1.067c0-2.017-1.666-2.965-2.547-3.184zm2.547 4.251h-1.067v1.066h1.067V9.322z"/></symbol><symbol id="instagram" viewBox="0 0 32 32"><path d="M31.968 9.408c-.074-1.701-.349-2.869-.742-3.882a7.839 7.839 0 00-1.85-2.837l-.001-.001A7.906 7.906 0 0026.597.861l-.054-.018C25.524.449 24.362.176 22.661.101 20.949.019 20.405 0 16.059 0c-4.344 0-4.888.019-6.595.094-1.699.074-2.869.349-3.88.742a7.847 7.847 0 00-2.839 1.85l-.001.001A7.9 7.9 0 00.919 5.465l-.018.054C.506 6.538.232 7.7.157 9.401c-.082 1.712-.101 2.256-.101 6.602 0 4.344.019 4.888.094 6.595.075 1.701.35 2.869.744 3.882a7.915 7.915 0 001.849 2.837l.001.001a7.887 7.887 0 002.778 1.825l.054.018c1.019.395 2.182.67 3.882.744 1.707.075 2.251.094 6.595.094 4.346 0 4.89-.019 6.595-.094 1.701-.074 2.869-.349 3.882-.742a8.237 8.237 0 004.664-4.628l.019-.055c.394-1.019.669-2.182.744-3.882.075-1.707.093-2.251.093-6.595s-.006-4.888-.08-6.595zm-2.88 13.066c-.07 1.563-.333 2.406-.55 2.97a5.341 5.341 0 01-3.004 3.024l-.036.012c-.56.219-1.411.482-2.968.55-1.688.075-2.194.094-6.464.094-4.269 0-4.782-.019-6.464-.094-1.563-.069-2.406-.331-2.97-.55a4.953 4.953 0 01-1.836-1.192l-.001-.001a4.978 4.978 0 01-1.184-1.803L3.6 25.45c-.218-.563-.48-1.413-.549-2.97-.075-1.688-.094-2.195-.094-6.464 0-4.27.019-4.784.094-6.464.069-1.563.331-2.406.549-2.97a4.897 4.897 0 011.198-1.837l.002-.002a4.972 4.972 0 011.806-1.182l.034-.011c.56-.219 1.411-.48 2.968-.55 1.688-.074 2.195-.093 6.464-.093 4.275 0 4.782.019 6.464.093 1.563.069 2.406.331 2.97.55a4.91 4.91 0 011.837 1.194c.531.52.938 1.144 1.195 1.84.218.56.48 1.411.549 2.968.075 1.688.094 2.194.094 6.464 0 4.269-.019 4.768-.094 6.458z"/><path  d="M16.059 7.782a8.223 8.223 0 00-8.219 8.221 8.223 8.223 0 0016.442.008v-.009a8.223 8.223 0 00-8.221-8.221zm0 13.552a5.333 5.333 0 01.001-10.666h.001a5.334 5.334 0 110 10.668zM26.525 7.458a1.92 1.92 0 01-3.84 0 1.92 1.92 0 013.84 0z"/></symbol><symbol id="linkedin" viewBox="0 0 32 32"><path  d="M31.992 32H32V20.262c0-5.741-1.235-10.163-7.947-10.163-3.227 0-5.392 1.77-6.277 3.45h-.093v-2.914h-6.365v21.363h6.627V21.42c0-2.786.528-5.48 3.978-5.48 3.398 0 3.45 3.179 3.45 5.658V32h6.619zM.528 10.635h6.635V32H.528V10.635zM3.843 0A3.843 3.843 0 000 3.843c0 2.12 1.722 3.878 3.843 3.878 2.12 0 3.842-1.757 3.842-3.878S5.965.002 3.844 0z"/></symbol><symbol id="mail" viewBox="0 0 32 32"><path  d="M29 4H3C1.346 4 0 5.346 0 7v18c0 1.654 1.346 3 3 3h26c1.654 0 3-1.346 3-3V7c0-1.654-1.346-3-3-3zm0 2c.136 0 .266.028.384.078L16 17.678 2.616 6.078A.971.971 0 013 6h26zm0 20H3a1 1 0 01-1-1V8.19l13.344 11.566a.997.997 0 001.313-.001l-.001.001L30 8.19V25a1 1 0 01-1 1z"/></symbol><symbol id="smartphone" viewBox="0 0 32 32"><path d="M23 0H9C7.346 0 6 1.346 6 3v26c0 1.654 1.346 3 3 3h14c1.654 0 3-1.346 3-3V3c0-1.654-1.346-3-3-3zM9 2h14a1 1 0 011 1v21H8V3a1 1 0 011-1zm14 28H9a1 1 0 01-1-1v-3h16v3a1 1 0 01-1 1z"/><path d="M10.708 27.478a.889.889 0 01.001 1.319l-.001.001a1.048 1.048 0 01-1.417 0l.001.001a.889.889 0 01-.001-1.319l.001-.001a1.048 1.048 0 011.417 0l-.001-.001z"/></symbol><symbol id="twitter" viewBox="0 0 32 32"><path  d="M32 6.078c-1.1.493-2.376.857-3.713 1.028l-.068.007a6.556 6.556 0 002.873-3.579l.013-.046a12.88 12.88 0 01-4.076 1.573l-.084.014A6.558 6.558 0 0015.6 9.557v.004c0 .52.043 1.021.152 1.496-5.454-.266-10.28-2.88-13.522-6.861a6.524 6.524 0 00-.902 3.313v.001a6.569 6.569 0 002.891 5.438l.023.015a6.453 6.453 0 01-2.994-.823l.033.017v.072a6.592 6.592 0 005.213 6.437l.043.008a6.4 6.4 0 01-1.668.216h-.055.003c-.419 0-.843-.024-1.242-.112.85 2.598 3.261 4.509 6.13 4.57a13.093 13.093 0 01-8.122 2.8H1.57h.001-.062c-.531 0-1.055-.034-1.569-.099l.061.006c2.826 1.846 6.287 2.944 10.004 2.944h.063-.003c12.072 0 18.672-10 18.672-18.669 0-.288-.01-.57-.024-.848a13.203 13.203 0 003.258-3.355l.03-.047z"/></symbol><symbol id="closebutton" viewBox="0 0 32 32"><path d="M32 3.223L28.777 0 16 12.777 3.223 0 0 3.223 12.777 16 0 28.777 3.223 32 16 19.223 28.777 32 32 28.777 19.223 16 32 3.223z"/></symbol><symbol id="client111" viewBox="0 0 57 32"><path d="M20.267 3.733l3.738 3.538-6.938-.004v17.167H35.2V17.87l3.733 3.534V3.733H20.266zm14.769 13.722L24.439 7.423h10.597v10.032zm-3.29 4.468h-11.81V10.378h.835v10.763h10.975v.781zm-9.021 4.797l-.436.899-.436-.899h-.366l.637 1.198v.698h.331v-.698l.635-1.198h-.364zm.549 1.896l.154-.442h.734l.155.442h.344l-.717-1.896h-.296l-.716 1.896h.342zm.52-1.493l.275.786h-.549l.275-.787zm1.737.74a.425.425 0 00-.071.238v.003c0 .16.056.29.168.389s.263.149.45.149a.784.784 0 00.485-.153l.107.126h.367l-.278-.33a.95.95 0 00.164-.574h-.275a.768.768 0 01-.079.348l-.366-.432.129-.094a.724.724 0 00.195-.195l.002-.003a.41.41 0 00.06-.216v-.003-.007a.39.39 0 00-.132-.293.477.477 0 00-.32-.123h-.02.001c-.153 0-.274.044-.364.13s-.135.203-.135.352c0 .061.014.123.043.189.03.065.082.144.155.237a1.13 1.13 0 00-.282.261zm.856.42a.478.478 0 01-.299.107h-.015a.31.31 0 01-.212-.083.286.286 0 01-.085-.203v-.011.001c0-.101.052-.192.156-.271l.041-.029.414.489zm-.34-.84c-.09-.11-.134-.202-.134-.275 0-.063.019-.116.055-.157a.184.184 0 01.139-.063h.015c.052 0 .1.02.135.054a.168.168 0 01.056.126v.007a.234.234 0 01-.08.177l-.041.032-.145.099zm3.086 1.03a.689.689 0 00.224-.474h-.328c-.018.135-.059.232-.124.29s-.163.087-.292.087c-.141 0-.249-.054-.323-.162s-.11-.264-.11-.469v-.167c.002-.203.041-.355.117-.46a.386.386 0 01.331-.157c.123 0 .217.03.28.091s.104.158.12.294h.328c-.021-.207-.095-.368-.222-.482s-.296-.171-.506-.171a.717.717 0 00-.681.421l-.002.005c-.06.133-.096.288-.096.451v.023-.001.177c.003.174.035.327.098.46s.151.234.266.306a.75.75 0 00.4.107c.216 0 .389-.056.519-.169zm1.936-.266c.064-.141.097-.304.097-.49v-.105-.02c0-.169-.036-.329-.102-.473l.003.007a.728.728 0 00-.274-.318l-.003-.002c-.119-.075-.256-.112-.411-.112s-.291.037-.411.113a.738.738 0 00-.277.324 1.135 1.135 0 00-.098.466v.025-.001.107c.001.181.034.341.099.48a.752.752 0 00.279.322.764.764 0 00.411.112.755.755 0 00.412-.112.737.737 0 00.276-.323zm-.353-1.072c.08.112.119.274.119.484v.099c0 .213-.039.376-.118.487a.386.386 0 01-.336.167h-.014a.393.393 0 01-.324-.17l-.001-.001c-.081-.114-.121-.275-.121-.483v-.109c.002-.204.043-.362.122-.473a.39.39 0 01.321-.168h.014-.001a.39.39 0 01.338.168z"/></symbol><symbol id="client222" viewBox="0 0 57 32"><path d="M26.727 3.165h-.073a7.542 7.542 0 00-.336-.012h-.243c-.212 0-.428.005-.643.016l-.024-.001-.025.001h.001c-2.059.12-3.971.635-5.699 1.47l.09-.039-.23.111V16.52l.54-.183a20.64 20.64 0 011.5-.445 17.815 17.815 0 014.305-.573h.012v1.551c-.193.001-.38.006-.568.016h-.045c-1.212.068-2.348.25-3.442.537l.12-.027c-1.503.382-2.82.91-4.044 1.586l.087-.044V3.793a15.559 15.559 0 014.042-1.665l.11-.024a15.546 15.546 0 013.91-.505h.231c.273.007.539.019.788.038.658.046 1.31.15 1.95.311v1.527a11.39 11.39 0 00-1.85-.282l-.039-.002-.038-.003c-.132-.011-.263-.022-.386-.022zm2.688 1.561c.339.026.689.038 1.044.038a16.84 16.84 0 004.231-.554l-.117.026a16.9 16.9 0 004.043-1.587l-.087.044v14.875a15.566 15.566 0 01-4.043 1.665l-.11.024c-1.173.314-2.52.497-3.909.503h-.1c-1.02 0-2.01-.128-2.955-.368l.083.018V4.438a11.955 11.955 0 001.876.284l.044.003zm7.57.116l-.54.181c-.496.167-.997.316-1.5.449-1.344.36-2.888.569-4.48.575h-.004c-.352 0-.676-.01-.989-.03l-.43-.028v12.148l.37.032c.342.03.696.045 1.052.045a14.371 14.371 0 003.631-.48l-.1.023a14.661 14.661 0 002.847-1.031l-.088.039.231-.111V4.842zM19.06 24.113a.794.794 0 00-.573-.243l-.029.001h.001-.012a.888.888 0 00-.34.067l.006-.002a.785.785 0 00-.442.444l-.002.005a.874.874 0 00-.062.335v2.023a.957.957 0 00.079.415.721.721 0 00.48.415c.099.027.201.042.302.042a.854.854 0 00.838-.851v-.226h-.529v.191a.475.475 0 01-.033.173l.001-.003a.315.315 0 01-.077.114.367.367 0 01-.221.077.265.265 0 01-.247-.108l-.001-.001a.478.478 0 01-.071-.251v-.021.001-1.887a.643.643 0 01.065-.302.27.27 0 01.227-.124l.033.002h-.001.01c.092 0 .174.045.226.114l.001.001a.425.425 0 01.088.261v.011-.001.175h.523v-.206-.009a.95.95 0 00-.067-.351l.002.006a.838.838 0 00-.177-.285zm3.142-.022a.92.92 0 00-.917-.166.838.838 0 00-.483.443l-.002.005a.94.94 0 00-.077.392v1.94a.932.932 0 00.077.397.77.77 0 00.205.271.837.837 0 00.279.171.914.914 0 00.919-.172l-.001.001a.831.831 0 00.199-.271.934.934 0 00.077-.397v-1.941-.017a.952.952 0 00-.08-.381l.002.006a.876.876 0 00-.199-.283zm-.247 2.615l.001.03a.349.349 0 01-.106.251.388.388 0 01-.499 0h.001a.344.344 0 01-.106-.25c0-.011 0-.022.002-.032v.001-1.941l-.001-.03c0-.098.041-.187.106-.25a.388.388 0 01.499 0h-.001a.344.344 0 01.106.25l-.001.032v-.001 1.941zm4.374.867v-3.675h-.508l-.668 1.945h-.009l-.674-1.945h-.503v3.674h.525v-2.235h.01l.514 1.58h.262l.518-1.58h.01v2.235h.525zm2.982-3.416a.727.727 0 00-.297-.201 1.153 1.153 0 00-.361-.057h-.8v3.675h.524v-1.435h.27a.966.966 0 00.472-.1.779.779 0 00.286-.278l.002-.003a.893.893 0 00.12-.32 2.56 2.56 0 00.028-.385v-.035.002a2.107 2.107 0 00-.051-.525.789.789 0 00-.193-.338zm-.27 1.12a.464.464 0 01-.049.194l.001-.003a.296.296 0 01-.134.128l-.002.001a.525.525 0 01-.22.047l-.028-.001h.001-.239v-1.249h.27l.025-.001c.077 0 .149.017.214.048l-.003-.001a.299.299 0 01.122.134l.001.002a.537.537 0 01.046.205v.244c0 .085.005.174 0 .252h-.005zm2.75-1.378h-.429l-.81 3.675h.524l.154-.789h.714l.154.789h.523l-.829-3.675zm-.483 2.384l.258-1.332h.01l.256 1.332h-.523zm3.865-.171h-.01l-.79-2.213h-.503v3.675h.523v-2.21h.011l.8 2.209h.493v-3.674h-.523v2.213zm3.199-2.213l-.421 1.461h-.011l-.421-1.461h-.554l.719 2.122v1.553h.524v-1.553l.719-2.121h-.555zM17.6 28.611h.252v.708h.171v-.708h.251v-.145H17.6v.146zm2.121-.146l-.331.853h.182l.07-.194h.34l.073.194h.187l-.339-.853h-.182zm-.027.516l.116-.316.116.316h-.232zm2.124.023h.197v.11a.326.326 0 01-.203.072H21.8a.218.218 0 01-.169-.081.352.352 0 01-.063-.203l.001-.02v.001c0-.19.082-.285.245-.285l.018-.001a.18.18 0 01.174.136v.001l.169-.033c-.036-.166-.156-.251-.362-.251h-.011a.43.43 0 00-.287.11.415.415 0 00-.123.329v-.001.02c0 .115.041.22.11.301l-.001-.001a.411.411 0 00.297.126l.027-.001h-.001.014a.51.51 0 00.348-.137v-.336h-.37v.144zm2.14-.539h-.172v.853h.597v-.145h-.425v-.708zm1.812 0h-.173v.853h.173v-.853zm1.769.57l-.349-.57h-.167v.853h.161v-.557l.343.557h.171v-.853h-.158v.57zm1.601-.093h.425v-.145h-.425v-.187h.457v-.146h-.63v.853h.647v-.145h-.475v-.231zm3.88-.14h-.336v-.336h-.171v.853h.171v-.373h.336v.373h.172v-.853h-.172v.337zm1.609.14h.427v-.145h-.427v-.187h.459v-.146h-.629v.853h.646v-.145h-.475v-.231zm2.183.001c.149-.023.224-.102.224-.237l.001-.024a.205.205 0 00-.085-.166h-.001a.478.478 0 00-.216-.051l-.035.001h.002-.362v.853h.172v-.357h.048c.034 0 .066.007.094.02l-.001-.001a.181.181 0 01.061.062l.186.271h.205l-.104-.166a.598.598 0 00-.187-.203l-.002-.001zm-.173-.118h-.126v-.214h.135l.036-.001c.049 0 .097.008.141.023l-.003-.001c.023.021.037.05.037.083a.114.114 0 01-.045.09.464.464 0 01-.142.021l-.033-.001h.002zm1.82.117h.425v-.145h-.425v-.187h.459v-.146h-.631v.853h.647v-.145h-.475v-.231z"/></symbol><symbol id="client333" viewBox="0 0 57 32"><path  d="M19.417 26.187a.07.07 0 01.046.018l.116.111a.964.964 0 01-.327.211 1.254 1.254 0 01-.434.076h-.032.002a1.213 1.213 0 01-.436-.071.953.953 0 01-.329-.2l.001.001a.884.884 0 01-.21-.302l-.002-.006a1.016 1.016 0 01-.075-.385v-.012-.02c0-.271.118-.515.304-.684l.001-.001c.1-.087.219-.155.349-.201.143-.048.296-.072.45-.07h.028c.139 0 .273.024.398.067l-.009-.003c.115.044.221.104.313.179l-.098.118a.12.12 0 01-.024.021.064.064 0 01-.034.009h-.006a.102.102 0 01-.043-.012l-.052-.032-.073-.041a.823.823 0 00-.225-.07l-.005-.001a1 1 0 00-.161-.013h-.013.001-.011a.963.963 0 00-.319.055l.007-.002a.673.673 0 00-.418.386.774.774 0 00-.059.302v.012-.001a.812.812 0 00.059.318.662.662 0 00.403.383.89.89 0 00.299.051c.059.001.119-.003.178-.01a.696.696 0 00.385-.164l-.001.001a.088.088 0 01.055-.02zm3.358-.558v.012a.958.958 0 01-.081.387l.002-.006a.864.864 0 01-.218.304l-.001.001a1.01 1.01 0 01-.337.198l-.007.002a1.409 1.409 0 01-.894-.003l.01.003a1.016 1.016 0 01-.342-.202l.001.001a.893.893 0 01-.219-.303l-.002-.006a1.024 1.024 0 01.003-.793l-.003.007a.925.925 0 01.221-.309c.097-.085.213-.15.341-.194a1.383 1.383 0 01.894.003l-.01-.003c.129.045.246.114.343.201a.903.903 0 01.298.701zm-.305 0v-.017a.812.812 0 00-.058-.305l.002.006a.656.656 0 00-.396-.384l-.005-.001a1.027 1.027 0 00-.65.002l.007-.002a.69.69 0 00-.246.15.623.623 0 00-.155.232l-.001.004a.91.91 0 00.003.638l-.002-.006a.65.65 0 00.398.383l.005.001c.207.068.435.068.643 0a.676.676 0 00.245-.148.662.662 0 00.156-.236.817.817 0 00.055-.316zm2.597.331l.031.07c.011-.025.021-.048.033-.07a.576.576 0 01.038-.069l.743-1.174c.015-.02.028-.033.043-.037s.033-.007.051-.007h.23v1.909h-.26v-1.463l-.001-.033.001-.035v.002l-.748 1.19a.111.111 0 01-.043.043h-.001a.13.13 0 01-.063.016H25.078h-.002a.134.134 0 01-.063-.016h.001a.111.111 0 01-.043-.043v-.001l-.77-1.198v1.532h-.251v-1.905h.229c.018 0 .036.002.053.007h-.001a.087.087 0 01.041.037l.759 1.175a.348.348 0 01.038.068zm2.796-.095v.715h-.29v-1.906h.649a1.37 1.37 0 01.362.042.724.724 0 01.256.119.488.488 0 01.144.184l.001.003a.576.576 0 01.049.244v.012a.53.53 0 01-.209.422l-.001.001a.748.748 0 01-.258.126 1.208 1.208 0 01-.327.044h-.024l-.351-.005zm0-.205h.352a.82.82 0 00.226-.029.488.488 0 00.164-.083l-.001.001a.365.365 0 00.133-.283v-.004l.001-.021a.33.33 0 00-.03-.137l.001.002a.371.371 0 00-.101-.13l-.001-.001a.621.621 0 00-.345-.104l-.048.002h.002-.352v.786zm3.909.922h-.233a.111.111 0 01-.06-.018.116.116 0 01-.038-.044v-.001l-.197-.461h-.994l-.205.461a.108.108 0 01-.098.061h-.233l.872-1.909h.302l.884 1.909zm-1.44-.708h.821l-.347-.777a1.324 1.324 0 01-.065-.179l-.034.1a.755.755 0 01-.034.087l.002-.006-.343.775zm2.697-1.191c.017.008.032.02.044.034l1.272 1.439v-1.482h.26v1.909h-.148a.135.135 0 01-.057-.012h.001a.16.16 0 01-.046-.035l-1.271-1.438.001.033-.001.034v-.002 1.419h-.26v-1.909h.154a.15.15 0 01.052.009zm3.719 1.14v.758h-.291v-.757l-.804-1.15h.267c.021 0 .04.006.056.016a.175.175 0 01.039.043l.503.742a.8.8 0 01.087.164l.002.005.038-.082a.624.624 0 01.049-.087l.496-.747a.202.202 0 01.037-.04.095.095 0 01.057-.019h.269l-.805 1.155zM24.923 21.47c.127.014.255.025.384.035 1.963-.763 3.622-2.011 4.772-3.588s1.739-3.415 1.694-5.282l-2.162-1.878c.439 1.988.234 4.043-.594 5.935s-2.245 3.547-4.094 4.779z"/><path  d="M24.151 21.382l.058.011c1.975-1.228 3.481-2.942 4.323-4.922s.981-4.133.4-6.181l-3.08-2.676c1.245 2.199 1.747 4.661 1.445 7.099-.301 2.437-1.392 4.75-3.147 6.669zm10.445-6.541c-.523 2.052-1.794 3.902-3.623 5.276-.5.38-1.063.737-1.657 1.043l-.064.03c1.49-.38 2.859-1.053 4.002-1.966s2.03-2.042 2.592-3.3l-1.249-1.084z"/><path  d="M34.106 14.539l-1.778-1.545c-.034 1.762-.611 3.483-1.669 4.986s-2.562 2.732-4.352 3.559h.009c.399 0 .797-.021 1.194-.062 1.673-.594 3.151-1.538 4.302-2.748s1.94-2.65 2.295-4.189zm-9.697-8.054L22.287 4.64c-1.897.637-3.527 1.756-4.68 3.212s-1.772 3.179-1.778 4.946c.007 1.952.763 3.846 2.149 5.383 1.385 1.536 3.321 2.628 5.501 3.101 1.946-2.06 3.085-4.605 3.252-7.266s-.647-5.299-2.323-7.531zm14.599 7.769c-.007-2.316-1.07-4.535-2.955-6.173s-4.439-2.561-7.105-2.567h-.021a11.28 11.28 0 00-3.66.606l.079-.024 12.989 11.286a7.537 7.537 0 00.672-3.128z"/></symbol><symbol id="client444" viewBox="0 0 57 32"><path  d="M12.878 11.255h-.002c-1.279 0-2.316.921-2.316 2.058v.002c0 1.137 1.037 2.058 2.316 2.058h.002c1.279 0 2.316-.922 2.316-2.058v-.001c0-1.137-1.037-2.059-2.316-2.059zm17.093-.658c-.004-1.579-.711-3.092-1.967-4.209s-2.958-1.745-4.734-1.749c-1.777.003-3.481.631-4.737 1.748s-1.964 2.63-1.968 4.209v8.706s13.405-1.327 13.406-8.704v-.002zM5.867 22.16c.003 1.099.496 2.151 1.37 2.928s2.058 1.214 3.294 1.218c1.236-.003 2.42-.441 3.294-1.218s1.366-1.829 1.37-2.927v-6.058s-9.327.924-9.327 6.057zm4.663 1.085c-.242 0-.477-.063-.678-.183a1.136 1.136 0 01-.447-.48l-.003-.007a.951.951 0 01-.068-.634l-.001.007c.047-.211.163-.404.334-.556s.388-.255.625-.297a1.363 1.363 0 01.715.064l-.009-.003c.223.082.414.221.548.4s.206.388.206.603a.963.963 0 01-.092.417 1.095 1.095 0 01-.263.352l-.001.001a1.323 1.323 0 01-.864.319h-.001v-.004zm9.426-.598h-.9v.93h-.469v-2.276h1.482v.38h-1.013v.588h.9v.378zm2.253-.156c0 .224-.039.42-.118.589a.893.893 0 01-.83.529h-.019.001a.948.948 0 01-.505-.136.917.917 0 01-.341-.382l-.002-.006a1.319 1.319 0 01-.123-.561v-.021.001-.112c0-.224.04-.421.12-.591a.901.901 0 01.848-.53c.19 0 .357.046.505.138a.888.888 0 01.342.392c.081.17.122.366.122.589v.101zm-.475-.103c0-.238-.043-.42-.128-.544a.417.417 0 00-.348-.186h-.019.001-.018a.419.419 0 00-.346.183l-.001.001c-.085.122-.128.301-.13.538v.111c0 .232.043.412.128.54s.209.192.369.192h.018a.413.413 0 00.343-.183l.001-.001c.084-.124.127-.304.128-.541v-.111zm1.995.592v-.013a.24.24 0 00-.093-.189h-.001a1.185 1.185 0 00-.338-.15 2.44 2.44 0 01-.399-.163l.014.006c-.259-.14-.388-.328-.388-.564 0-.123.035-.233.103-.328.069-.097.169-.172.299-.227s.276-.081.437-.081c.162 0 .307.029.434.089a.677.677 0 01.295.249.646.646 0 01.107.365h-.469c0-.104-.032-.185-.098-.242a.4.4 0 00-.276-.087.426.426 0 00-.267.074.228.228 0 00-.096.185v.006c0 .074.037.136.111.186.075.05.185.097.33.14.267.08.461.18.583.299s.183.267.183.444c0 .197-.075.352-.224.464s-.349.167-.601.167c-.175 0-.334-.032-.478-.096a.77.77 0 01-.328-.261l-.002-.002a.672.672 0 01-.112-.373v-.015.001h.47c0 .251.15.377.45.377a.442.442 0 00.261-.067.223.223 0 00.093-.182v-.009zm2.502-1.298h-.697v1.895h-.469v-1.895h-.686v-.38h1.853v.38zm1.637.909h-.9v.61h1.056v.377h-1.525v-2.276h1.522v.38h-1.053v.542h.9v.367zm1.274.153h-.373v.833H28.3v-2.276h.845c.269 0 .476.06.622.18s.219.289.219.508a.705.705 0 01-.101.389.69.69 0 01-.3.245l-.005.002.492.93v.021h-.503l-.427-.832zm-.373-.38h.379a.387.387 0 00.273-.089.323.323 0 00.097-.231v-.018.001c0-.108-.03-.192-.092-.253s-.154-.092-.28-.092h-.377v.683zm2.84.411v.802h-.469v-2.276h.888c.171 0 .321.031.45.094.13.062.23.151.3.267a.746.746 0 01.105.392.657.657 0 01-.229.528c-.153.128-.363.193-.633.193h-.411zm0-.379h.419c.124 0 .219-.029.283-.087a.317.317 0 00.099-.25v-.017a.372.372 0 00-.099-.254.37.37 0 00-.272-.106h-.43v.715zm2.965.195h-.9v.61h1.056v.377h-1.525v-2.276h1.522v.38h-1.053v.542h.9v.367zm2.176-.909h-.697v1.895h-.469v-1.895h-.687v-.38h1.853v.38zm1.637.909h-.899v.61h1.056v.377h-1.525v-2.276h1.522v.38h-1.053v.542h.9v.367zm1.274.153h-.373v.833h-.469v-2.276h.846c.269 0 .476.06.622.18s.219.289.219.508a.705.705 0 01-.101.389.687.687 0 01-.301.245l-.005.002.492.93v.021h-.503l-.427-.832zm-.374-.38h.378c.117 0 .209-.029.273-.089a.324.324 0 00.097-.232v-.018.001a.338.338 0 00-.092-.253c-.06-.061-.154-.092-.279-.092h-.377v.683zm2.755.616v-.013a.237.237 0 00-.094-.189h-.001a1.185 1.185 0 00-.338-.15c-.15-.047-.278-.1-.399-.163l.014.006c-.259-.14-.388-.328-.388-.564 0-.123.035-.233.103-.328a.691.691 0 01.299-.227 1.13 1.13 0 01.437-.081c.163 0 .307.029.435.089a.677.677 0 01.295.249.646.646 0 01.107.365h-.469c0-.104-.032-.185-.098-.242a.4.4 0 00-.276-.087.426.426 0 00-.267.074.228.228 0 00-.096.185v.006c0 .074.037.136.111.186.075.05.185.097.33.14.267.08.461.18.583.299s.183.267.183.444a.549.549 0 01-.224.464c-.148.111-.349.167-.601.167-.175 0-.334-.032-.478-.096a.77.77 0 01-.328-.261l-.002-.002a.672.672 0 01-.112-.373v-.015.001h.47c0 .251.15.377.45.377a.442.442 0 00.261-.067.223.223 0 00.093-.182v-.009z"/></symbol><symbol id="client555" viewBox="0 0 57 32"><path  d="M14.27 23.859a.768.768 0 01.197.56.756.756 0 01-.073.326l.002-.005a.83.83 0 01-.232.296l-.002.001a1.39 1.39 0 01-.885.24h.004-1.549v-3.301h1.517a1.377 1.377 0 01.846.222l-.005-.003a.782.782 0 01.227.277.71.71 0 01.068.341.722.722 0 01-.176.505.842.842 0 01-.462.258.893.893 0 01.523.283zm-1.816-.498h.649a.655.655 0 00.412-.11.386.386 0 00.109-.144l.001-.003a.358.358 0 00.03-.145l-.001-.033v.001l.001-.028a.376.376 0 00-.031-.15l.001.002a.399.399 0 00-.108-.147h-.001a.665.665 0 00-.373-.113l-.054.002h.002-.638v.867zm1.124 1.266a.407.407 0 00.118-.149l.001-.003a.37.37 0 00.034-.158l-.001-.027v.001l.001-.024a.38.38 0 00-.037-.165l.001.002a.41.41 0 00-.121-.151l-.001-.001a.705.705 0 00-.397-.121l-.045.001h.002-.68v.908h.689a.727.727 0 00.435-.115zm3.793.651l-.843-1.291h-.317v1.291h-.726v-3.302h1.374a1.433 1.433 0 01.96.284l-.004-.003a1.016 1.016 0 01.329.735.99.99 0 01-.228.633l.001-.002a1.152 1.152 0 01-.649.335l-.006.001.899 1.319h-.789zm-1.161-1.74h.594c.412 0 .619-.166.619-.5l.001-.027a.464.464 0 00-.035-.176l.001.003a.494.494 0 00-.118-.171.68.68 0 00-.47-.133h.003-.601l.007 1.005zm5.129 1.075h-1.446l-.255.665h-.761l1.328-3.265h.823l1.323 3.265h-.761l-.25-.665zm-.194-.499l-.529-1.394-.529 1.394h1.057zm5.16 1.164h-.72l-1.616-2.245v2.245h-.719v-3.302h.719l1.616 2.259v-2.259h.72v3.302zm4.113-.79a1.501 1.501 0 01-.652.582c-.28.132-.608.209-.955.209l-.062-.001h.003-1.282v-3.302h1.283l.06-.001c.345 0 .673.075.968.209l-.015-.006c.276.128.503.329.652.576a1.78 1.78 0 010 1.733zm-.825-.079c.196-.205.317-.482.318-.788 0-.289-.113-.569-.318-.788a1.317 1.317 0 00-.906-.281h.004-.5v2.138h.5a1.323 1.323 0 00.905-.282l-.003.002zm-7.803-20.8s9.3 3.215 9.103 7.867v7.869s-9.294-3.216-9.1-7.869l-.003-7.867zm17.389 13.894a13.494 13.494 0 015.909-1.994v-2.464c-2.444.863-4.517 2.427-5.909 4.458z"/><path  d="M38.124 18.245c1.437-2.651 3.93-4.696 6.964-5.716V5.431s-13.245 4.58-12.965 11.205v11.203s.59-.205 1.519-.589c0-.358 0-.719.043-1.083.274-3.075 1.87-5.925 4.439-7.924z"/><path  d="M36.864 22.407c.069-.777.225-1.546.463-2.294-1.599 1.725-2.568 3.867-2.769 6.122-.02.213-.03.426-.036.645a36.805 36.805 0 002.761-1.334l-.214.105a10.624 10.624 0 01-.206-3.244zm.526.04a10.256 10.256 0 00.175 3.003l-.012-.066c3.619-1.983 7.685-5.046 7.528-8.748v-.323c-2.586.265-5.004 1.3-6.885 2.946a10.02 10.02 0 00-.804 3.148l-.003.04z"/></symbol><symbol id="client666" viewBox="0 0 57 32"><path  d="M28.493 14.618a1.563 1.563 0 01-.322-1.065v.005-1.538c0-.471.107-.829.321-1.075.213-.245.581-.367 1.101-.366.489 0 .837.105 1.042.313.224.266.333.591.308.919v.362h-.875v-.366a1.799 1.799 0 00-.026-.358.34.34 0 00-.125-.212l-.001-.001a.499.499 0 00-.279-.084l-.039.001h.002l-.038-.001a.53.53 0 00-.297.09l.002-.001a.415.415 0 00-.145.232v.003a1.74 1.74 0 00-.035.351v.031-.002 1.866c-.014.18.025.36.112.524.045.056.104.1.172.126l.003.001a.48.48 0 00.228.029H29.6a.47.47 0 00.311-.086l-.002.001a.37.37 0 00.13-.224v-.002c.02-.124.03-.249.027-.374v-.379h.875v.346a1.397 1.397 0 01-.305.969l.002-.003c-.201.228-.544.342-1.047.342s-.884-.122-1.1-.375zm3.644.016c-.221-.24-.332-.588-.332-1.05v-1.618c0-.457.111-.803.332-1.037s.59-.351 1.109-.35c.515 0 .882.117 1.103.35.221.235.333.58.333 1.037v1.617c0 .457-.112.807-.337 1.049s-.59.361-1.1.361-.886-.122-1.109-.359zm1.516-.389a.902.902 0 00.105-.478v-1.981a.872.872 0 00-.105-.474l.002.005a.425.425 0 00-.176-.128l-.003-.001a.473.473 0 00-.233-.027h.002a.49.49 0 00-.235.028l.003-.001a.416.416 0 00-.179.128l-.001.001a.855.855 0 00-.105.469v1.99a.888.888 0 00.105.479.605.605 0 00.639.116l-.004.001a.563.563 0 00.185-.118v-.01zm2.082-3.619h.942l.708 2.984.725-2.984h.916l.093 4.307h-.678l-.073-2.994-.699 2.994h-.544l-.724-3.005-.067 3.005h-.685l.085-4.307zm4.441 0h1.468c.845 0 1.268.407 1.268 1.223 0 .781-.445 1.171-1.335 1.17h-.5v1.914h-.906l.005-4.308zm1.254 1.841a.707.707 0 00.498-.136.699.699 0 00.131-.486 1.325 1.325 0 00-.046-.4l.002.009a.317.317 0 00-.067-.119.386.386 0 00-.112-.085l-.002-.001a.917.917 0 00-.357-.071l-.05.001h.002-.351v1.287h.352zm2.789-1.841h.973l.998 4.307h-.845l-.197-.993h-.868l-.203.993h-.857l.998-4.307zm.831 2.816l-.339-1.808-.339 1.808h.677zm1.946-2.816h.635l1.213 2.457v-2.457h.752v4.307h-.603l-1.221-2.565v2.565h-.777l.002-4.307zm4.361 2.665l-1.009-2.659h.85l.616 1.708.578-1.708h.832l-.997 2.659v1.642h-.869V13.29zm-21.465 3.526v.225h-.739v1.75h-.31v-1.75H28.1v-.225h1.792zm2.318 1.976h-.246a.105.105 0 01-.061-.019.1.1 0 01-.039-.045v-.001l-.214-.469h-1.026l-.213.469a.126.126 0 01-.033.053.108.108 0 01-.062.019h-.245l.906-1.975h.315l.917 1.968zm-1.501-.734h.855l-.363-.804a1.278 1.278 0 01-.064-.176l-.003-.01-.034.105-.033.083-.358.803zm3.062.539a1.018 1.018 0 00.316-.023 1.11 1.11 0 00.139-.038l-.008.002c.04-.014.08-.031.122-.049v-.444h-.366a.076.076 0 01-.046-.016c-.006-.004-.01-.01-.014-.016a.034.034 0 01-.004-.018v-.153h.703v.757c-.11.068-.237.123-.372.158l-.01.002c-.075.019-.15.033-.227.041s-.168.012-.259.012h-.017c-.159 0-.312-.027-.455-.077l.01.003a1.123 1.123 0 01-.364-.208l.002.001a.952.952 0 01-.231-.307l-.002-.006a.965.965 0 01-.083-.397v-.013-.011c0-.145.03-.283.084-.407l-.003.007a.924.924 0 01.232-.312l.001-.001c.103-.089.227-.158.363-.205.155-.051.32-.076.485-.074.084 0 .169.005.252.017.074.011.146.027.215.05.064.02.124.047.181.078.055.031.108.065.158.103l-.087.122a.073.073 0 01-.029.026.093.093 0 01-.042.011.111.111 0 01-.057-.016h.001a.892.892 0 01-.094-.05l.005.003a.814.814 0 00-.115-.052l-.006-.002a1.027 1.027 0 00-.16-.043l-.007-.001a1.34 1.34 0 00-.218-.017h-.013.001-.011c-.121 0-.238.02-.346.057l.008-.002a.773.773 0 00-.267.157l.001-.001a.672.672 0 00-.166.241l-.002.005a.917.917 0 00.002.665l-.002-.006a.76.76 0 00.445.405c.115.034.237.047.359.039zm2.888-.031h.989v.225h-1.291v-1.975h.309l-.007 1.75zm2.018.226h-.309v-1.975h.309v1.975zm1.153-1.966a.14.14 0 01.047.036l1.324 1.489-.001-.035.001-.037v.002-1.472h.27v1.984h-.166a.14.14 0 01-.058-.012h.001a.162.162 0 01-.048-.037l-1.323-1.488v1.536h-.259v-1.975h.161c.018 0 .035.003.051.009zm3.923-.01v.217h-1.098v.652h.89v.21h-.89v.674h1.098v.218h-1.417v-1.971h1.417zm-32.467-12.2l13.757 3.372v11.818l-13.757-3.371V4.616zm-.882-1.008V17.01l15.52 3.806V7.417L10.404 3.61z"/><path  d="M18.722 27.036L3.2 23.227V9.828l15.522 3.807v13.401z"/><path  d="M10.661 4.465l13.578 3.33-5.774 4.987L4.886 9.45l5.776-4.986zm-.257-.856L3.2 9.828l15.522 3.808 7.202-6.22-15.52-3.807zm9.192 22.673l6.329-5.466-6.329-1.552v7.019z"/></symbol><symbol id="linkedin" viewBox="0 0 32 32"><path  d="M31.992 32H32V20.262c0-5.741-1.235-10.163-7.947-10.163-3.227 0-5.392 1.77-6.277 3.45h-.093v-2.914h-6.365v21.363h6.627V21.42c0-2.786.528-5.48 3.978-5.48 3.398 0 3.45 3.179 3.45 5.658V32h6.619zM.528 10.635h6.635V32H.528V10.635zM3.843 0A3.843 3.843 0 000 3.843c0 2.12 1.722 3.878 3.843 3.878 2.12 0 3.842-1.757 3.842-3.878S5.965.002 3.844 0z"/></symbol><symbol id="facebook" viewBox="0 0 18 32"><path  d="M13.328 5.312h2.923V.224A36.478 36.478 0 0012.144 0h-.157.008C7.782 0 4.896 2.65 4.896 7.52V12H.25v5.688h4.646V32h5.699V17.69h4.461l.709-5.69h-5.17V8.08c0-1.643.443-2.768 2.734-2.768z"/></symbol><symbol id="icon-menu_40px" viewBox="0 0 32 32"><path d="M6.4 11.734v-2.134h19.2v2.134h-19.2zM6.4 17.066h19.2v-2.133h-19.2v2.133zM6.4 22.4h19.2v-2.134h-19.2v2.134z"></path></symbol>
<symbol id="icon-heck" viewBox="0 0 32 32"><path fill="var(--color1, #2196f3)" d="M4 1h24a4 4 0 014 4v22a4 4 0 01-4 4H4a4 4 0 01-4-4V5a4 4 0 014-4z"/><path fill="var(--color2, #fff)" stroke="var(--color2, #fff)" stroke-width=".4" d="M7.914 16.504l-.138-.132-.138.13L5.71 18.33l.152.146 7.13 6.8.138-.132 15.16-14.462-.152-.144-1.902-1.814-.138.132-13.106 12.492-5.078-4.844z"/></symbol>
<symbol id="modal-mail-1" viewBox="0 0 32 32"><path d="M28 4H4a2.997 2.997 0 00-2.986 3L1 25c0 1.65 1.35 3 3 3h24c1.65 0 3-1.35 3-3V7c0-1.65-1.35-3-3-3zm-.6 6.376l-10.604 6.628c-.226.141-.501.225-.795.225s-.569-.084-.801-.229l.006.004L4.6 10.374a1.275 1.275 0 111.354-2.157l-.005-.003 10.05 6.286 10.05-6.286a1.274 1.274 0 111.356 2.157l-.006.003z"/></symbol>
<symbol id="modal-mail-2" viewBox="0 0 32 32"><path d="M26.667 5.333H5.334A2.662 2.662 0 002.682 8l-.014 16c0 1.467 1.2 2.667 2.667 2.667h21.333c1.467 0 2.667-1.2 2.667-2.667V8c0-1.467-1.2-2.667-2.667-2.667zm-.534 5.668l-9.426 5.892a1.343 1.343 0 01-1.421-.004l.006.003L5.866 11A1.133 1.133 0 117.07 9.083l-.004-.003 8.933 5.586 8.933-5.588a1.132 1.132 0 111.204 1.916l-.005.003z"/></symbol>
<symbol id="modal-person-1" viewBox="0 0 32 32"><path d="M16 16a8 8 0 000-16 8 8 0 000 16zm0 4c-5.339 0-16 2.68-16 8v2c0 1.099.901 2 2 2h28c1.099 0 2-.901 2-2v-2c0-5.32-10.661-8-16-8z"/></symbol>
<symbol id="modal-person-2" viewBox="0 0 32 32"><path fill="var(--color1, #2196f3)" d="M16 16a5.333 5.333 0 100-10.666A5.333 5.333 0 1016 16zm0 2.667c-3.561 0-10.667 1.787-10.667 5.333v1.333c0 .732.599 1.333 1.333 1.333h18.667c.732 0 1.333-.601 1.333-1.333V24c0-3.547-7.108-5.333-10.667-5.333z"/></symbol>
<symbol id="modal-tel-1" viewBox="0 0 32 32"><path d="M27.419 20.853l-4.201-.48a3.28 3.28 0 00-2.713.941l-3.045 3.045c-4.718-2.435-8.467-6.185-10.835-10.764l-.065-.139L9.623 10.4a3.281 3.281 0 00.94-2.729l.002.016-.48-4.169A3.314 3.314 0 006.798.592H3.933C2.063.59.509 2.144.623 4.014 1.501 18.14 12.799 29.42 26.909 30.297c1.867.114 3.424-1.44 3.424-3.31v-2.862-.016a3.279 3.279 0 00-2.897-3.256l-.015-.001z"/></symbol>
<symbol id="modal-tel-2" viewBox="0 0 32 32"><path d="M24.882 19.774l-3.268-.373a2.555 2.555 0 00-2.11.732l-2.368 2.368c-3.669-1.894-6.585-4.81-8.427-8.372l-.051-.108 2.382-2.377a2.552 2.552 0 00.731-2.122l.001.012-.373-3.243a2.578 2.578 0 00-2.557-2.276H6.613c-1.454 0-2.663 1.209-2.574 2.663.683 10.987 9.47 19.76 20.444 20.443 1.452.089 2.663-1.12 2.663-2.574v-2.226-.012a2.549 2.549 0 00-2.253-2.532l-.012-.001z"/></symbol>
<symbol id="plane" viewBox="0 0 32 32 "><path  fill="var(--color2, #fff)"  d="M32 0L0 18l10.227 3.787L26 7 14.003 23.187l.009.003-.012-.003V32l5.735-6.691L27.002 28l4.999-28z"/></symbol>
<symbol id="icon-check-zero" viewBox="0 0 34 32"><path d="M30.34 3.556v24.887h-26.547v-24.887h26.547zM30.34 0h-26.547c-2.086 0-3.793 1.6-3.793 3.556v24.887c0 1.956 1.707 3.556 3.793 3.556h26.547c2.086 0 3.793-1.6 3.793-3.556v-24.887c0-1.956-1.707-3.556-3.793-3.556z"></path>
</symbol></defs></svg>

<svg fill="none" xmlns="http://www.w3.org/2000/svg" viewBox="0 0 44 44"><path d="M44 22a21.931 21.931 0 01-6.444 15.556A21.931 21.931 0 0122 44a21.931 21.931 0 01-15.556-6.444A21.931 21.931 0 010 22 21.931 21.931 0 016.444 6.444 21.931 21.931 0 0122 0a21.931 21.931 0 0115.556 6.444A21.931 21.931 0 0144 22z" fill="#2196F3"/><g clip-path="url(#clip0)" fill="#fff"><path d="M31.98 17.88c-.046-1.063-.218-1.793-.464-2.426a4.881 4.881 0 00-1.157-1.774 4.922 4.922 0 00-1.77-1.153c-.637-.246-1.363-.418-2.426-.464-1.07-.051-1.41-.063-4.126-.063-2.715 0-3.055.012-4.122.059-1.063.046-1.793.219-2.426.465a4.879 4.879 0 00-1.774 1.156 4.923 4.923 0 00-1.152 1.77c-.247.637-.418 1.363-.465 2.426-.051 1.07-.063 1.41-.063 4.126 0 2.715.012 3.055.059 4.122.047 1.063.219 1.793.465 2.426a4.932 4.932 0 001.156 1.774c.5.508 1.106.902 1.77 1.152.637.247 1.364.419 2.426.465 1.067.047 1.407.059 4.122.059 2.716 0 3.055-.012 4.122-.059 1.063-.046 1.793-.218 2.426-.464a5.116 5.116 0 002.927-2.927c.246-.637.418-1.364.465-2.426.047-1.067.058-1.407.058-4.122s-.004-3.055-.05-4.122zm-1.8 8.166c-.044.977-.208 1.504-.344 1.855a3.318 3.318 0 01-1.9 1.9c-.35.136-.882.3-1.855.343-1.055.047-1.371.059-4.04.059-2.668 0-2.989-.012-4.04-.059-.977-.043-1.504-.207-1.856-.344a3.076 3.076 0 01-1.148-.746 3.109 3.109 0 01-.747-1.148c-.136-.352-.3-.883-.343-1.856-.047-1.055-.059-1.372-.059-4.04 0-2.669.012-2.99.059-4.04.043-.977.207-1.504.343-1.856a3.04 3.04 0 01.75-1.149 3.104 3.104 0 011.15-.746c.35-.136.882-.3 1.855-.344 1.055-.046 1.372-.058 4.04-.058 2.672 0 2.989.011 4.04.058.977.043 1.504.207 1.856.344.433.16.828.414 1.148.746.332.325.586.715.747 1.15.136.35.3.882.343 1.855.047 1.055.059 1.371.059 4.04 0 2.668-.012 2.98-.059 4.036z"/><path d="M22.037 16.864a5.139 5.139 0 105.138 5.138 5.139 5.139 0 00-5.138-5.138zm0 8.47a3.333 3.333 0 11.001-6.666 3.333 3.333 0 010 6.667zM28.578 16.661a1.2 1.2 0 11-2.4 0 1.2 1.2 0 012.4 0z"/></g><defs><clipPath id="clip0"><path fill="#fff" transform="translate(12 12)" d="M0 0h20v20H0z"/></clipPath></defs></svg>

<svg aria-hidden="true" style="position: absolute; width: 0; height: 0; overflow: hidden;" version="1.1" xmlns="http://www.w3.org/2000/svg" xmlns:xlink="http://www.w3.org/1999/xlink">
<defs>
<symbol id="icon-menu_24px" viewBox="0 0 48 32">
<title>menu_24px</title>
<path d="M0 5.334v-5.334h48v5.334h-48zM0 18.666h48v-5.332h-48v5.332zM0 32h48v-5.334h-48v5.334z"></path>
</symbol>
<symbol id="icon-menu_40px" viewBox="0 0 32 32">
<title>menu_40px</title>
<path d="M6.4 11.734v-2.134h19.2v2.134h-19.2zM6.4 17.066h19.2v-2.133h-19.2v2.133zM6.4 22.4h19.2v-2.134h-19.2v2.134z"></path>
</symbol>
</defs>
</svg>
